<?xml version="1.0" encoding="UTF-8" standalone="no"?>
<svg
   viewBox="0 0 256 256"
   version="1.1"
   id="svg915"
   sodipodi:docname="drive-multidisk-symbolic.svg"
   width="256"
   height="256"
   inkscape:version="1.2.2 (b0a8486541, 2022-12-01)"
   xmlns:inkscape="http://www.inkscape.org/namespaces/inkscape"
   xmlns:sodipodi="http://sodipodi.sourceforge.net/DTD/sodipodi-0.dtd"
   xmlns="http://www.w3.org/2000/svg"
   xmlns:svg="http://www.w3.org/2000/svg">
  <defs
     id="defs919" />
  <sodipodi:namedview
     id="namedview917"
     pagecolor="#ffffff"
     bordercolor="#999999"
     borderopacity="1"
     inkscape:showpageshadow="0"
     inkscape:pageopacity="0"
     inkscape:pagecheckerboard="0"
     inkscape:deskcolor="#d1d1d1"
     showgrid="false"
     inkscape:zoom="0.921875"
     inkscape:cx="-149.69491"
     inkscape:cy="100.88136"
     inkscape:window-width="2560"
     inkscape:window-height="1371"
     inkscape:window-x="0"
     inkscape:window-y="0"
     inkscape:window-maximized="1"
     inkscape:current-layer="svg915" />
  <g
     transform="matrix(15.987536,0,0,15.987536,6060.2585,-7785.9299)"
     style="fill:#353535"
     id="g913">
    <path
       d="m -375.81,487 c -1.202,0 -2.188,0.988 -2.188,2.188 v 7.625 c 0,1.2 0.986,2.188 2.188,2.188 h 6.625 c 1.202,0 2.188,-0.988 2.188,-2.188 v -7.625 c 0,-1.2 -0.986,-2.188 -2.188,-2.188 z m 0,2 h 6.625 c 0.124,0 0.188,0.057 0.188,0.188 v 7.625 c 0,0.131 -0.064,0.188 -0.188,0.188 h -6.625 c -0.124,0 -0.188,-0.057 -0.188,-0.188 v -7.625 c 0,-0.131 0.064,-0.188 0.188,-0.188 z"
       style="color:#353535"
       id="path903" />
    <g
       style="color:#000000"
       id="g909">
      <path
         d="m -372.66,490 c -1.161,0.066 -2.138,0.93 -2.313,2.125 -0.2,1.366 0.728,2.644 2.094,2.844 l 0.281,-1.781 c -0.342,-0.048 -0.625,-0.332 -0.625,-0.688 0,-0.388 0.33,-0.688 0.719,-0.688 0.388,0 0.719,0.299 0.719,0.688 0,0.054 -0.02,0.106 -0.031,0.156 l 1.75,0.406 c 0.014,-0.063 0.022,-0.124 0.031,-0.188 0.2,-1.366 -0.728,-2.644 -2.094,-2.844 -0.171,-0.025 -0.365,-0.041 -0.531,-0.031 z"
         id="path905" />
      <path
         d="m -372.09,493.01 0.836,2.41 c 0.459,1.239 1.874,0.232 0.935,-0.602 z"
         id="path907" />
    </g>
    <path
       d="m -366,491 v 2.188 6.813 0.813 c 0,0.131 -0.064,0.188 -0.188,0.188 h -6.625 c -0.124,0 -0.188,-0.057 -0.188,-0.188 v -0.813 h -2 v 0.813 c 0,1.2 0.986,2.188 2.188,2.188 h 6.625 c 1.202,0 2.188,-0.988 2.188,-2.188 v -7.625 c 0,-1.136 -0.886,-2.09 -2,-2.188 z"
       style="color:#353535"
       id="path911" />
  </g>
</svg>
