<?xml version="1.0" encoding="UTF-8" standalone="no"?>
<svg
   viewBox="0 0 256 256"
   version="1.1"
   id="svg8"
   sodipodi:docname="applications-engineering-symbolic.svg"
   inkscape:version="1.2.2 (b0a8486541, 2022-12-01)"
   width="256"
   height="256"
   xmlns:inkscape="http://www.inkscape.org/namespaces/inkscape"
   xmlns:sodipodi="http://sodipodi.sourceforge.net/DTD/sodipodi-0.dtd"
   xmlns="http://www.w3.org/2000/svg"
   xmlns:svg="http://www.w3.org/2000/svg">
  <defs
     id="defs12" />
  <sodipodi:namedview
     id="namedview10"
     pagecolor="#ffffff"
     bordercolor="#999999"
     borderopacity="1"
     inkscape:showpageshadow="0"
     inkscape:pageopacity="0"
     inkscape:pagecheckerboard="0"
     inkscape:deskcolor="#d1d1d1"
     showgrid="false"
     inkscape:zoom="2.6074563"
     inkscape:cx="124.06728"
     inkscape:cy="69.799829"
     inkscape:window-width="1271"
     inkscape:window-height="1359"
     inkscape:window-x="35"
     inkscape:window-y="32"
     inkscape:window-maximized="0"
     inkscape:current-layer="svg8" />
  <g
     transform="matrix(15.995153,0,0,15.995153,-12364.198,5085.9908)"
     style="display:inline"
     id="g6">
    <path
       d="m 10.996,0.031 c -1.22,0.475 -1.998,1.485 -2,2.594 0.002,1.109 0.78,2.118 2,2.594 V 7.69 c 0.169,0.08 0.34,0.154 0.504,0.248 1.12,0.646 1.944,1.602 2.496,2.713 V 5.219 c 1.22,-0.475 1.998,-1.485 2,-2.594 -0.002,-1.109 -0.78,-2.118 -2,-2.594 V 2 c 0,0.554 -0.446,1 -1,1 h -1 c -0.554,0 -1,-0.446 -1,-1 z"
       transform="translate(773.0039,-317.99981)"
       style="opacity:1;fill:#353535;fill-opacity:1;fill-rule:nonzero;stroke:none"
       id="path2" />
    <path
       d="m 781,-310 c -1.036,0 -2.073,0.267 -3,0.803 -1.854,1.071 -3,3.056 -3,5.197 h -1.754 c -0.139,0 -0.25,0.111 -0.25,0.25 v 1.5 c 0,0.139 0.111,0.25 0.25,0.25 h 15.5 c 0.139,0 0.25,-0.111 0.25,-0.25 v -1.5 c 0,-0.139 -0.111,-0.25 -0.25,-0.25 H 787 c 0,-2.141 -1.146,-4.127 -3,-5.197 -0.927,-0.535 -1.964,-0.803 -3,-0.803 z m 0,2.998 c 0.517,0 1.035,0.134 1.5,0.402 0.93,0.537 1.5,1.525 1.5,2.6 h -6 c 0,-1.074 0.57,-2.063 1.5,-2.6 0.465,-0.269 0.983,-0.402 1.5,-0.402 z"
       style="opacity:1;fill:#353535;fill-opacity:1;fill-rule:nonzero;stroke:none"
       id="path4" />
  </g>
</svg>
