<?xml version="1.0" encoding="UTF-8" standalone="no"?>
<!-- Generator: Adobe Illustrator 19.1.1, SVG Export Plug-In . SVG Version: 6.00 Build 0)  -->

<svg
   version="1.1"
   x="0px"
   y="0px"
   viewBox="0 2 48 48"
   enable-background="new 0 2 48 48"
   xml:space="preserve"
   id="svg10"
   sodipodi:docname="linux.svg"
   inkscape:version="1.4 (e7c3feb100, 2024-10-09)"
   xmlns:inkscape="http://www.inkscape.org/namespaces/inkscape"
   xmlns:sodipodi="http://sodipodi.sourceforge.net/DTD/sodipodi-0.dtd"
   xmlns="http://www.w3.org/2000/svg"
   xmlns:svg="http://www.w3.org/2000/svg"><defs
   id="defs10" /><sodipodi:namedview
   id="namedview10"
   pagecolor="#ffffff"
   bordercolor="#000000"
   borderopacity="0.25"
   inkscape:showpageshadow="2"
   inkscape:pageopacity="0.0"
   inkscape:pagecheckerboard="0"
   inkscape:deskcolor="#d1d1d1"
   inkscape:zoom="11.785113"
   inkscape:cx="22.061732"
   inkscape:cy="26.304372"
   inkscape:window-width="1920"
   inkscape:window-height="1011"
   inkscape:window-x="0"
   inkscape:window-y="0"
   inkscape:window-maximized="1"
   inkscape:current-layer="svg10" />
<polygon
   fill="#eceff1"
   points="20.2,20.5 18.6,23.5 16.1,28.4 15.6,32.5 17.4,38.3 21.5,40.6 27.7,40.6 33.5,36.2 36.1,29.3 30.1,22 28.4,17.9 20.1,18.2 "
   id="polygon1"
   transform="matrix(1.2804381,0,0,1.2804381,-6.8545428,-7.3108332)" />
<path
   fill="#263238"
   d="M 37.064485,23.291638 C 35.015784,20.34663 33.351214,18.554017 32.454907,14.840746 31.558601,11.127476 32.710995,12.151826 31.942732,8.9507309 31.558601,7.2861613 30.918382,6.133767 30.278163,5.2374604 29.5099,4.3411537 28.613593,3.8289784 28.101418,3.7009346 26.949024,3.0607156 24.260103,2.0363651 20.930964,3.8289784 17.473781,5.6215918 17.857913,9.4629061 18.498132,17.273579 c 0,0.512175 -0.128044,1.152394 -0.384131,1.664569 -0.512176,1.152395 -1.408482,2.176745 -2.176745,3.073052 -0.896307,1.280438 -1.792614,2.560876 -2.432833,3.969358 -1.536525,2.945008 -2.945007,6.658278 -2.560876,8.06676 0.640219,-0.128044 8.706979,12.164162 8.706979,12.42025 0.512176,-0.128044 2.68892,-0.128044 4.609577,-0.128044 2.688921,-0.128044 4.225446,-0.256088 6.402191,0.256088 0,-0.384132 -0.128044,-0.768263 -0.128044,-1.152395 0,-0.768263 0.128044,-1.408482 0.256088,-2.304788 0.128044,-0.640219 0.256087,-1.280438 0.384131,-2.048701 -1.280438,1.152394 -3.585226,2.432832 -5.761971,2.816963 -1.920657,0.384132 -5.121753,-0.256087 -6.658278,-2.176744 0.128043,0 0.384131,0 0.512175,-0.128044 0.384131,-0.128044 0.768263,-0.256088 0.896307,-0.512175 0.384131,-0.640219 0.128043,-1.280438 -0.128044,-1.66457 -0.256088,-0.384131 -2.176745,-1.792613 -3.073052,-2.560876 -0.896306,-0.768263 -1.408482,-1.152394 -1.920657,-1.66457 0,0 -0.768263,-0.768263 -1.02435,-1.02435 -0.256088,-0.256088 -0.384132,-0.512175 -0.512176,-0.640219 -0.256087,-0.640219 -0.384131,-1.408482 -0.256087,-2.432833 0.128043,-1.408482 0.640219,-2.560876 1.280438,-3.841314 0.256087,-0.512175 0.896306,-1.536526 0.896306,-1.536526 0,0 -2.176744,5.37784 -1.02435,7.04241 0,0 0.128044,-1.66457 0.640219,-3.329139 0.384131,-1.152395 1.024351,-2.816964 1.792613,-3.713271 0.768263,-0.896306 2.68892,-4.225446 2.816964,-6.274147 0,-0.896306 0.128044,-1.792613 0.128044,-2.432832 -0.512175,-0.512175 8.450892,-1.792613 8.963067,-0.384131 0.128044,0.512175 1.920657,5.121752 2.945008,7.554584 0.512175,1.152395 1.152394,2.176745 1.536525,3.457183 0.384132,1.408482 0.640219,3.32914 0.640219,5.249797 0,0.384131 0,1.02435 -0.128043,1.664569 0.256087,0 5.249796,-5.37784 -0.64022,-9.859373 0,0 3.585227,1.664569 3.713271,4.993708 0.128044,2.68892 -1.02435,4.865665 -1.280438,5.249797 0.128044,0 2.68892,1.152394 2.816964,1.152394 0.512175,0 1.536526,-0.384131 1.536526,-0.384131 0.128043,-0.384132 0.512175,-1.408482 0.512175,-1.792614 0.896306,-2.945007 -1.280438,-7.682629 -3.329139,-10.627636 z"
   id="path1"
   style="stroke-width:1.28044" />
<g
   id="g2"
   transform="matrix(1.2804381,0,0,1.2804381,-6.8545428,-7.3108332)">
	<ellipse
   fill="#eceff1"
   cx="21.6"
   cy="15.3"
   rx="1.3"
   ry="2"
   id="ellipse1" />
	<ellipse
   fill="#eceff1"
   cx="26.1"
   cy="15.2"
   rx="1.7"
   ry="2.3"
   id="ellipse2" />
</g>
<g
   id="g4"
   transform="matrix(1.2804381,0,0,1.2804381,-6.8545428,-7.3108332)">
	
		<ellipse
   transform="matrix(-0.1254,-0.9921,0.9921,-0.1254,8.9754,38.9969)"
   fill="#212121"
   cx="21.700001"
   cy="15.5"
   rx="1.2"
   ry="0.69999999"
   id="ellipse3" />
	<ellipse
   fill="#212121"
   cx="26"
   cy="15.6"
   rx="1"
   ry="1.3"
   id="ellipse4" />
</g>
<g
   id="g6"
   transform="matrix(1.2804381,0,0,1.2804381,-6.8545428,-7.3108332)">
	<path
   fill="#ffc107"
   d="m 39.3,37.6 c -0.4,-0.2 -1.1,-0.5 -1.7,-1.4 -0.3,-0.5 -0.2,-1.9 -0.7,-2.5 -0.3,-0.4 -0.7,-0.2 -0.8,-0.2 -0.9,0.2 -3,1.6 -4.4,0 -0.2,-0.2 -0.5,-0.5 -1,-0.5 -0.5,0 -0.7,0.2 -0.9,0.6 -0.2,0.4 -0.2,0.7 -0.2,1.7 0,0.8 0,1.7 -0.1,2.4 -0.2,1.7 -0.5,2.7 -0.5,3.7 0,1.1 0.3,1.8 0.7,2.1 0.3,0.3 0.8,0.5 1.9,0.5 1.1,0 1.8,-0.4 2.5,-1.1 0.5,-0.5 0.9,-0.7 2.3,-1.7 1.1,-0.7 2.8,-1.6 3.1,-1.9 0.2,-0.2 0.5,-0.3 0.5,-0.9 0,-0.5 -0.4,-0.7 -0.7,-0.8 z"
   id="path4" />
	<path
   fill="#ffc107"
   d="m 19.2,37.9 c -1,-1.6 -1.1,-1.9 -1.8,-2.9 -0.6,-1 -1.9,-2.9 -2.7,-2.9 -0.6,0 -0.9,0.3 -1.3,0.7 -0.4,0.4 -0.8,1.3 -1.5,1.8 -0.6,0.5 -2.3,0.4 -2.7,1 -0.4,0.6 0.4,1.5 0.4,3 0,0.6 -0.5,1 -0.6,1.4 -0.1,0.5 -0.2,0.8 0,1.2 0.4,0.6 0.9,0.8 4.3,1.5 1.8,0.4 3.5,1.4 4.6,1.5 1.1,0.1 3,0 3,-2.7 0.1,-1.6 -0.8,-2 -1.7,-3.6 z"
   id="path5" />
	<path
   fill="#ffc107"
   d="M 21.1,19.8 C 20.5,19.4 20,19 20,18.4 c 0,-0.6 0.4,-0.8 1,-1.3 0.1,-0.1 1.2,-1.1 2.3,-1.1 1.1,0 2.4,0.7 2.9,0.9 0.9,0.2 1.8,0.4 1.7,1.1 -0.1,1 -0.2,1.2 -1.2,1.7 -0.7,0.2 -2,1.3 -2.9,1.3 -0.4,0 -1,0 -1.4,-0.1 -0.3,-0.1 -0.8,-0.6 -1.3,-1.1 z"
   id="path6" />
</g>
<g
   id="g9"
   transform="matrix(1.2804381,0,0,1.2804381,-6.8545428,-7.3108332)">
	<path
   fill="#634703"
   d="m 20.9,19 c 0.2,0.2 0.5,0.4 0.8,0.5 0.2,0.1 0.5,0.2 0.5,0.2 0.4,0 0.7,0 0.9,0 0.5,0 1.2,-0.2 1.9,-0.6 0.7,-0.3 0.8,-0.5 1.3,-0.7 0.5,-0.3 1,-0.6 0.8,-0.7 -0.2,-0.1 -0.4,0 -1.1,0.4 -0.6,0.4 -1.1,0.6 -1.7,0.9 -0.3,0.1 -0.7,0.3 -1,0.3 -0.3,0 -0.6,0 -0.9,0 -0.3,0 -0.5,-0.1 -0.8,-0.2 -0.2,-0.1 -0.3,-0.2 -0.4,-0.2 -0.2,-0.1 -0.6,-0.5 -0.8,-0.6 0,0 -0.2,0 -0.1,0.1 0.3,0.3 0.4,0.4 0.6,0.6 z"
   id="path7" />
	<path
   fill="#634703"
   d="m 23.9,16.8 c 0.1,0.2 0.3,0.2 0.4,0.3 0.1,0.1 0.2,0.1 0.2,0.1 0.1,-0.1 0,-0.3 -0.1,-0.3 0,-0.2 -0.5,-0.2 -0.5,-0.1 z"
   id="path8" />
	<path
   fill="#634703"
   d="m 22.3,17 c 0,0.1 0.2,0.2 0.2,0.1 0.1,-0.1 0.2,-0.2 0.3,-0.2 0.2,-0.1 0.1,-0.2 -0.2,-0.2 -0.2,0.1 -0.2,0.2 -0.3,0.3 z"
   id="path9" />
</g>
<path
   fill="#455a64"
   d="m 34.119477,37.120369 c 0,0.128044 0,0.256088 0,0.384132 0.256088,0.512175 0.896307,0.640219 1.408482,0.640219 0.768263,0 1.536526,-0.512175 1.920657,-1.024351 0,-0.128043 0.128044,-0.256087 0.256088,-0.384131 0.256087,-0.384131 0.384131,-0.640219 0.512175,-0.768263 0,0 -0.128044,-0.128044 -0.128044,-0.256087 -0.128044,-0.256088 -0.512175,-0.512176 -1.02435,-0.64022 -0.384132,-0.128043 -1.024351,-0.256087 -1.280438,-0.256087 -1.152395,-0.128044 -1.792614,0.256087 -2.176745,0.640219 0,0 0.128044,0 0.128044,0.128044 0.256087,0.256087 0.384131,0.512175 0.384131,0.896306 0.128044,0.256088 0,0.384132 0,0.640219 z"
   id="path10"
   style="stroke-width:1.28044" />
</svg>
