<svg xmlns="http://www.w3.org/2000/svg" height="95.52" width="1008.107"><path d="M932.372.2l75.74 94.7h-18.917L960.76 59.358l-28.437 35.54h-18.906l37.888-47.376L913.456.2h18.916" fill="#fff" fill-rule="evenodd"/><path d="M965.904 29.536L989.159.2h18.922L975.37 41.355l-9.465-11.819" fill="#86c22b" fill-rule="evenodd"/><path d="M837.94 47.804c0 18.093 14.675 32.762 32.76 32.762 18.1 0 32.77-14.67 32.77-32.762 0-18.102-14.67-32.76-32.77-32.76-18.085 0-32.76 14.658-32.76 32.76zm-14.533 0C823.407 21.68 844.579.502 870.7.502c26.125 0 47.308 21.18 47.308 47.302 0 26.121-21.183 47.305-47.308 47.305-26.121 0-47.293-21.184-47.293-47.305M732.935 47.804c0 18.093 14.656 32.762 32.756 32.762 18.098 0 32.757-14.67 32.757-32.762 0-18.102-14.659-32.76-32.757-32.76-18.1 0-32.756 14.658-32.756 32.76zm-14.547 0c0-26.13 21.183-47.302 47.303-47.302C791.82.502 813 21.682 813 47.804c0 26.121-21.18 47.305-47.31 47.305-26.12-.006-47.302-21.184-47.302-47.305" fill="#fff" fill-rule="evenodd"/><path d="M619.29.006h46.746s1.83-.017 4.612.36c13.975 1.929 25.57 10.472 25.57 26.41 0 6.075-1.791 11.335-4.822 15.549 12.143 2.901 21.623 11.263 21.623 25.66 0 16.49-13.246 26.996-28.35 26.77h-65.38V.007zm12.213 53.536v28.895h53.202l2.532-.238c7.847-1.171 13.463-5.195 13.463-14.214 0-10.245-9.213-14.397-17.836-14.443l-14.01.004-.987-.004h-36.364zm0-41.213v28.889l36.406.008 2.542-.24c7.833-1.166 13.448-5.193 13.448-14.21 0-10.243-9.206-14.405-17.828-14.447h-34.568" fill="#fff"/><path d="M541.3 87.296l-.13-.13-39.394-40.804 34.243-36.72.025-.02c.83-.88 1.333-1.988 1.333-3.206 0-2.8-2.642-5.065-5.904-5.065l-18.432-.004-26.896 28.836-27.84-28.836h-20.53c-3.266 0-5.907 2.268-5.907 5.069 0 1.167.456 2.234 1.239 3.093l36.792 38.1-36.947 39.62v.009c-.85.87-1.347 1.996-1.347 3.213 0 2.8 2.644 5.069 5.904 5.069h18.432l28.911-31.008.665-.72 28.86 29.874.008.017c1.084 1.118 2.722 1.837 4.552 1.837h17.743c3.268 0 5.908-2.268 5.908-5.069 0-1.191-.484-2.288-1.288-3.155M409.441 1.347h-21.684l-31.313 32.427-31.316-32.427h-21.675c-3.269 0-5.91 2.268-5.91 5.069 0 1.218.498 2.327 1.328 3.205l.054.047 44.52 44.525v36.258c0 2.8 2.65 5.069 5.906 5.069h14.182c3.266 0 5.907-2.268 5.907-5.069V54.193l44.521-44.525.058-.047c.824-.878 1.33-1.987 1.33-3.205 0-2.8-2.64-5.065-5.908-5.069M110.277 71.619c0 2.8-2.636 5.064-5.905 5.064H54.193V20.231h56.084v51.388zm8.88-70.272h-76.2c-8.15 0-14.757 5.662-14.757 12.655v68.862c0 6.99 6.608 12.656 14.756 12.656h76.202c8.14 0 14.749-5.667 14.749-12.656V14.002c0-6.993-6.61-12.65-14.75-12.655" fill="#fff" fill-rule="evenodd"/><path d="M8.773 20.703H5.579c-.448 0-.8.356-.8.796v3.188a.8.8 0 00.8.8h3.194c.43 0 .79-.364.79-.8V21.5c0-.44-.36-.796-.79-.796M8.773 13.525H5.98a1.196 1.196 0 01-1.202-1.188V9.54a.8.8 0 00-.795-.798H.796A.8.8 0 000 9.54v3.185c0 .444.36.8.796.8h2.79a1.19 1.19 0 011.193 1.197v2.787c0 .44.352.8.8.8h3.194c.43 0 .79-.36.79-.796v-3.189a.8.8 0 00-.79-.8M8.773 32.656H5.98a1.202 1.202 0 01-1.202-1.202v-2.786c0-.44-.36-.796-.795-.796H.796a.798.798 0 00-.796.796v3.188c0 .44.36.8.796.8h2.79a1.19 1.19 0 011.193 1.192v2.792a.79.79 0 00.8.795h3.194c.43 0 .79-.351.79-.795V33.45a.798.798 0 00-.79-.795M11.744 32.656h4.784v-4.784h-4.784v4.784" fill="#8cd024" fill-rule="evenodd"/><path d="M11.744 65.12c14.128.116 27.559 3.82 42.504 11.567V20.23C39.303 12.484 25.872 8.784 11.744 8.67v4.854h3.988c.435 0 .796.361.796.805v3.18c0 .44-.361.8-.796.8l-3.988-.005v4.783h3.988c.435 0 .796.361.796.8v3.984h3.98c.443 0 .79.356.79.8v3.184l-.034.247a.789.789 0 01-.756.553h-3.98v3.984c0 .44-.361.795-.796.795h-3.988V65.12" fill="#8cd024" fill-rule="evenodd"/><path d="M182.345 1.347H170.53c-3.254 0-5.908 2.268-5.908 5.069V90.45c0 2.8 2.65 5.069 5.908 5.069h11.816c3.264 0 5.908-2.268 5.908-5.069V6.416c0-2.8-2.648-5.065-5.908-5.069" fill="#fff" fill-rule="evenodd"/><path d="M197.679 46.972l-.01-.008.01.008z" fill="#7b7979" fill-rule="evenodd"/><path d="M273.919 6.428v-.033c-.014-2.792-2.654-5.048-5.906-5.048h-11.818c-3.266 0-5.91 2.268-5.91 5.069v51.237l-49.753-41.638-.075-.063c-.53-.438-1.254-.71-2.058-.71-1.642 0-2.976 1.137-2.976 2.545V43.39c0 1.399.661 2.662 1.729 3.574l.008.008 54.176 45.454.352.302c2.117 1.724 4.976 2.792 8.123 2.792h8.202c3.252 0 5.892-2.26 5.906-5.047V6.428" fill="#fff" fill-rule="evenodd"/></svg>