<svg xmlns="http://www.w3.org/2000/svg" width="996" height="991" fill="none" viewBox="0 0 996 991">
  <path stroke="#000" stroke-width="25" d="M640.5 155c0 78.701-63.799 142.5-142.5 142.5S355.5 233.701 355.5 155c0-78.7 63.799-142.5 142.5-142.5S640.5 76.3 640.5 155Zm343 342c0 78.701-63.799 142.5-142.5 142.5S698.5 575.701 698.5 497 762.299 354.5 841 354.5 983.5 418.299 983.5 497Zm0 339c0 78.701-63.799 142.5-142.5 142.5S698.5 914.701 698.5 836 762.299 693.5 841 693.5 983.5 757.299 983.5 836Z"/>
  <circle cx="498" cy="836" r="142.5" stroke="#000" stroke-width="25"/>
  <circle cx="155" cy="836" r="142.5" stroke="#000" stroke-width="25"/>
  <path stroke="#000" stroke-width="25" d="m587.808 257.13 144 143M830.5 632v70m-87.866-118.961-156 149M363 829.5h-72"/>
</svg>
