<svg xmlns="http://www.w3.org/2000/svg" height="96" width="1009.333"><path d="M932.639.493l75.74 94.699H989.46l-28.433-35.54-28.439 35.54h-18.905l37.888-47.377L913.719.493h18.92" fill="#0b0c0b" fill-rule="evenodd"/><path d="M966.17 29.829L989.423.493h18.921l-32.709 41.155-9.467-11.82" fill="#86c22b" fill-rule="evenodd"/><path d="M823.67 48.096c0-26.123 21.174-47.302 47.295-47.302 26.126 0 47.308 21.18 47.308 47.302 0 26.121-21.182 47.305-47.308 47.305-26.121 0-47.294-21.184-47.294-47.305zm14.537 0c0 18.093 14.673 32.762 32.758 32.762 18.1 0 32.768-14.67 32.768-32.762 0-18.102-14.668-32.76-32.768-32.76-18.085 0-32.758 14.658-32.758 32.76M718.653 48.096c0-26.13 21.183-47.302 47.302-47.302 26.129 0 47.309 21.18 47.309 47.302 0 26.121-21.18 47.305-47.31 47.305-26.118-.006-47.3-21.184-47.3-47.305zm14.547 0c0 18.093 14.657 32.762 32.755 32.762 18.098 0 32.76-14.67 32.76-32.762 0-18.102-14.662-32.76-32.76-32.76S733.2 29.995 733.2 48.097" fill="#0b0c0b" fill-rule="evenodd"/><path d="M631.767 12.62v28.89l36.408.008 2.54-.238c7.834-1.167 13.449-5.195 13.449-14.211 0-10.244-9.207-14.406-17.828-14.448zm0 41.215V82.73h53.205l2.53-.24c7.846-1.17 13.462-5.193 13.462-14.213 0-10.245-9.212-14.396-17.833-14.442l-14.012.004-.987-.004zM619.553.298H666.3s1.832-.016 4.613.36c13.974 1.929 25.571 10.473 25.571 26.41 0 6.075-1.79 11.336-4.823 15.55 12.144 2.901 21.622 11.263 21.622 25.66 0 16.489-13.243 26.996-28.348 26.77h-65.382V.298" fill="#0b0c0b"/><path d="M541.564 87.589l-.128-.13-39.395-40.805 34.243-36.72.024-.02c.833-.88 1.336-1.989 1.336-3.206 0-2.8-2.645-5.064-5.905-5.064l-18.431-.005-26.899 28.836-27.838-28.836h-20.532c-3.266 0-5.906 2.269-5.906 5.07 0 1.166.455 2.233 1.239 3.092l36.79 38.1-36.945 39.62v.01c-.85.87-1.348 1.996-1.348 3.213 0 2.8 2.646 5.068 5.906 5.068h18.432l28.91-31.007.666-.72 28.86 29.874.008.017c1.084 1.117 2.72 1.836 4.553 1.836h17.741c3.268 0 5.91-2.268 5.91-5.068 0-1.192-.486-2.288-1.291-3.155M409.705 1.64h-21.684L356.71 34.065 325.393 1.64H303.72c-3.27 0-5.911 2.269-5.911 5.07 0 1.216.499 2.326 1.328 3.205l.055.046 44.52 44.525v36.26c0 2.799 2.649 5.067 5.905 5.067h14.183c3.265 0 5.905-2.268 5.905-5.068V54.485L414.227 9.96l.057-.046c.824-.88 1.33-1.989 1.33-3.206 0-2.8-2.64-5.064-5.909-5.069M119.423 1.64H43.22c-8.148 0-14.756 5.662-14.756 12.655v68.861c0 6.99 6.608 12.656 14.756 12.656h76.202c8.14 0 14.749-5.666 14.749-12.656V14.295c0-6.993-6.608-12.651-14.75-12.656zm-8.88 70.27c0 2.8-2.637 5.065-5.906 5.065H54.458V20.523h56.084V71.91" fill="#0b0c0b" fill-rule="evenodd"/><path d="M9.038 20.995H5.844c-.448 0-.8.356-.8.796v3.189a.8.8 0 00.8.8h3.194c.43 0 .79-.365.79-.8V21.79c0-.44-.36-.796-.79-.796M9.038 13.818H6.246a1.196 1.196 0 01-1.202-1.189V9.834a.8.8 0 00-.795-.8H1.061a.802.802 0 00-.796.8v3.184c0 .444.36.8.796.8h2.791c.661 0 1.192.531 1.192 1.197v2.788c0 .439.352.798.8.798h3.194c.43 0 .79-.36.79-.795v-3.188a.8.8 0 00-.79-.8M9.038 32.948H6.246a1.201 1.201 0 01-1.202-1.201V28.96c0-.44-.36-.796-.795-.796H1.061a.799.799 0 00-.796.796v3.189c0 .439.36.8.796.8h2.791c.661 0 1.192.531 1.192 1.192v2.791a.79.79 0 00.8.795h3.194c.43 0 .79-.351.79-.795v-3.188a.799.799 0 00-.79-.796M12.008 32.948h4.785v-4.784h-4.785v4.784" fill="#8cd024" fill-rule="evenodd"/><path d="M12.008 65.413c14.129.116 27.56 3.82 42.505 11.566V20.523C39.568 12.776 26.137 9.076 12.008 8.963v4.855h3.989c.435 0 .796.36.796.804v3.181c0 .439-.361.798-.796.798l-3.989-.003v4.783h3.989c.435 0 .796.36.796.8v3.983h3.98a.79.79 0 01.79.8v3.185l-.033.247a.79.79 0 01-.758.552h-3.98v3.984c0 .44-.36.795-.795.795h-3.989v27.686" fill="#8cd024" fill-rule="evenodd"/><path d="M182.61 1.64h-11.815c-3.256 0-5.908 2.268-5.908 5.068v84.036c0 2.8 2.649 5.068 5.908 5.068h11.814c3.264 0 5.91-2.268 5.91-5.068V6.708c0-2.8-2.65-5.064-5.91-5.069" fill="#0b0c0b" fill-rule="evenodd"/><path d="M197.944 47.265l-.01-.008.01.008" fill="#7b7979" fill-rule="evenodd"/><path d="M274.184 6.72v-.033c-.013-2.792-2.655-5.048-5.905-5.048H256.46c-3.265 0-5.91 2.269-5.91 5.07v51.237l-49.753-41.638-.074-.063c-.532-.439-1.255-.71-2.06-.71-1.64 0-2.975 1.137-2.975 2.544v25.604c0 1.398.661 2.661 1.73 3.574l.006.008L251.6 92.72l.353.301c2.118 1.725 4.975 2.792 8.123 2.792h8.203c3.25 0 5.892-2.26 5.905-5.047V6.72" fill="#0b0c0b" fill-rule="evenodd"/></svg>