<?xml version="1.0" encoding="UTF-8" standalone="no"?>
<svg
   id="emoji"
   viewBox="0 0 72 72"
   version="1.1"
   sodipodi:docname="267B(2).svg"
   inkscape:version="1.1.1 (3bf5ae0d25, 2021-09-20)"
   xmlns:inkscape="http://www.inkscape.org/namespaces/inkscape"
   xmlns:sodipodi="http://sodipodi.sourceforge.net/DTD/sodipodi-0.dtd"
   xmlns="http://www.w3.org/2000/svg"
   xmlns:svg="http://www.w3.org/2000/svg">
  <defs
     id="defs29" />
  <sodipodi:namedview
     id="namedview27"
     pagecolor="#ffffff"
     bordercolor="#666666"
     borderopacity="1.0"
     inkscape:pageshadow="2"
     inkscape:pageopacity="0.0"
     inkscape:pagecheckerboard="0"
     showgrid="false"
     inkscape:zoom="10.861111"
     inkscape:cx="36"
     inkscape:cy="36"
     inkscape:window-width="1920"
     inkscape:window-height="986"
     inkscape:window-x="-11"
     inkscape:window-y="-11"
     inkscape:window-maximized="1"
     inkscape:current-layer="color" />
  <g
     id="color">
    <path
       fill="#5c9e31"
       stroke="#5c9e31"
       stroke-linecap="round"
       stroke-linejoin="round"
       stroke-width="2"
       d="m 34.5992,22.9548 -3.6234,5.9466 -10,-6 2.9936,-5.047 c 1.4882,-1.9298 4.1084,-2.4725 6.2065,-1.4143 0.4895,0.2469 0.8889,0.6454 1.1717,1.1151 l 3.2209,5.3487 z"
       id="path4"
       style="fill:#e6e6e6;stroke:#e6e6e6" />
    <path
       fill="#5c9e31"
       stroke="#5c9e31"
       stroke-linecap="round"
       stroke-linejoin="round"
       stroke-width="2"
       d="m 44.595,41.7316 -3.4823,-6.0303 10.0589,-5.9007 2.9947,5.0464 c 0.9804,2.2311 0.2008,4.7908 -1.7335,6.125 -0.4513,0.3113 -0.9925,0.4708 -1.5402,0.4939 l -6.2381,0.2632 z"
       id="path6"
       style="fill:#e6e6e6;stroke:#e6e6e6" />
    <path
       fill="#b1cc33"
       stroke="#b1cc33"
       stroke-linecap="round"
       stroke-linejoin="round"
       stroke-width="2"
       d="m 15.1736,40.4773 6.3786,11.7153 0.0905,0.1672 c 0.457,0.8345 1.0227,0.8014 1.7954,0.8014 h 1.7755 l 5.9275,-0.0201 -0.1741,-11.6606 -3.6013,0.0292 -9.9074,-0.0291 h -0.0168 c -0.0084,-0.0037 -1.6263,0.0036 -1.6346,0 l -0.6333,-1.0032 z"
       id="path8"
       style="fill:#feffff;fill-opacity:1;stroke:#f9f9f9" />
    <path
       fill="#b1cc33"
       stroke="#b1cc33"
       stroke-linecap="round"
       stroke-linejoin="round"
       stroke-width="2"
       d="M 31.3718,17.5602 37,26.9064 35.0962,28.1583 44,28.9064 l 5,-8 -2,1 -3,-5 -0.0966,-0.1637 C 43.4157,15.9258 42.7817,15.9125 42.0428,15.9125 L 27.6754,15.9071 c 0,0 2.6027,-0.1772 3.6964,1.6531 z"
       id="path10"
       style="fill:#feffff;fill-opacity:1;stroke:#f9f9f9" />
    <path
       fill="#5c9e31"
       stroke="#5c9e31"
       stroke-linecap="round"
       stroke-linejoin="round"
       stroke-width="2"
       d="m 28,37.9061 -2,-1 -0.46,0.6599 -2.37,3.9301 -5.71,-0.0199 h -0.02 c -0.01,0 -0.02,0 -0.02,-0.01 -2.14,-0.9501 -3.7,-3.4701 -2.69,-5.7001 l 3.03,-4.98 -1.82,-1.3099 9.41,0.7 z"
       id="path12"
       style="fill:#e6e6e6;stroke:#e6e6e6" />
    <path
       fill="#b1cc33"
       stroke="#b1cc33"
       stroke-linecap="round"
       stroke-linejoin="round"
       stroke-width="2"
       d="m 53.7867,39.5333 -6.5944,12.0412 c -0.3555,0.6477 -0.6895,1.5434 -1.6403,1.5779 l -0.2891,4e-4 -5.7482,-0.008 -0.0478,2.1256 -4.6071,-8.2326 4.754,-7.761 v 2.2145 l 6.6396,-0.0378 5.9102,0.1376 z"
       id="path14"
       style="fill:#feffff;fill-opacity:1;stroke:#f9f9f9" />
  </g>
  <g
     id="line">
    <path
       fill="none"
       stroke="#000"
       stroke-linecap="round"
       stroke-linejoin="round"
       stroke-width="2"
       d="m32.2615,26.8361l-1.2615,2.0703-10-6,2.9936-5.047c1.4882-1.9298,4.1084-2.4725,6.2065-1.4143.4895.2469.8889.6454,1.1717,1.1151l5.6282,9.3462-1.9038,1.2519,8.9038.7481,5-8-2,1-3-5-.0966-.1637c-.4877-.8169-1.1217-.8302-1.8606-.8302l-7.0917-.0054"
       id="path17" />
    <path
       fill="none"
       stroke="#000"
       stroke-linecap="round"
       stroke-linejoin="round"
       stroke-width="2"
       d="m14.7341,35.7661c-1.0145,2.2288-.2617,4.7593,1.8762,5.7145,0,0,.7482-.0046.7566-.0009l.0915.001,9.9074.0291,3.6013-.0292.1741,11.6605-5.9275.0201h-1.7755c-.7727,0-1.3384.0331-1.7954-.8014l-.0905-.1672-3.6618-6.7839"
       id="path19" />
    <polyline
       fill="none"
       stroke="#000"
       stroke-linecap="round"
       stroke-linejoin="round"
       stroke-width="2"
       points="14.7341 35.7661 17.76 30.7817 15.9432 29.4782 25.3515 30.1741 28 37.9064 26 36.9064 25.5367 37.5666"
       id="polyline21" />
    <path
       fill="none"
       stroke="#000"
       stroke-linecap="round"
       stroke-linejoin="round"
       stroke-width="2"
       d="m42.3269,37.7505l-1.2117-2.1088,10.0715-5.8791,2.9838,5.0528c.9756,2.2332.1905,4.7912-1.7467,6.1213-.4519.3103-.9935.4687-1.5413.4906l-11.2687.0641v-2.2145l-4.754,7.761,4.6071,8.2326.0478-2.1256,5.7482.008.2891-.0004c.9508-.0344,1.2847-.9301,1.6403-1.5779l3.3361-6.0667"
       id="path23" />
  </g>
</svg>
