<svg xmlns="http://www.w3.org/2000/svg" width="512" height="512" fill="none" viewBox="0 0 512 512">
  <circle cx="248" cy="242" r="207" fill="#ADD8E6"/>
  <path fill="gray" fill-opacity=".95" d="m183.605 146.011 4.576-6.902-6.859-5.162 2.283 12.064Zm-3.798 142.25-6.101-12.074-11.424-2.582-6.101-16.373-15.232 1.717-12.939-9.472-13.717 12.064v1.899c-4.15-1.195-9.248-1.355-12.95-3.627l-3.05-8.618v-9.483l-9.135.853c.763-6.037 1.52-12.064 2.288-18.101h-5.338l-5.326 6.901-5.336 2.582-7.62-4.299-.762-9.493 1.524-10.347 11.43-8.608h9.139l1.52-5.184 11.424 2.581 8.384 10.358 1.525-17.259 14.475-12.064 5.322-12.928 10.667-4.309 6.091-8.619 13.706-2.603 6.87-10.336h-20.576l12.949-6.037h9.141l12.95-4.32 1.525-5.152-4.576-4.32-5.333-1.728 1.525-5.163-3.808-7.765-9.141 3.445 1.525-6.89-10.656-6.038-8.384 14.646.757 5.173-8.373 3.456-5.333 11.211-2.283-10.347-14.475-6.037-2.293-7.755 19.051-11.217 8.384-7.757.757-9.48-4.565-2.59-6.102-.864-3.797 9.486s-6.379 1.248-8.011 1.653C99.082 105.723 56.819 147.333 47 225.87c.39 1.824 7.118 12.384 7.118 12.384l15.994 9.483 15.995 4.309 6.863 8.629 10.656 7.755 6.091-.853 4.576 2.058v1.387l-6.091 16.373-4.576 6.902 1.525 3.456-3.808 12.917 13.707 25.013 13.707 12.075 6.101 8.608-.768 18.112 4.576 10.336-4.576 19.84s-.352-.128.224 1.856c.597 1.984 24.405 15.211 25.92 14.08 1.515-1.141 2.805-2.144 2.805-2.144l-1.525-4.299 6.091-6.037 2.293-6.037 9.899-3.467 7.616-18.965-2.283-5.163 5.323-7.755 11.434-2.592 6.091-13.802-1.525-17.227 9.141-12.939 1.525-12.928c-12.501-6.208-24.906-12.586-37.322-18.976M143.242 85.658l-3.819 9.48h7.627l3.808-8.622c3.285-2.322 6.56-4.66 9.899-6.897l7.626 2.59a6982.619 6982.619 0 0 0 15.232 10.34l7.616-6.891-8.384-3.449-3.808-7.762-14.474-1.724-.758-4.313-6.858 1.729-3.051 6.033-3.808-7.761-1.515 3.448.758 8.622-6.091 5.177ZM268.917 53.76 249.109 46l-22.838 2.584-28.192 7.756-5.333 5.178 17.525 12.065v6.897l-6.858 6.897 9.141 18.12 6.08-3.456 7.637-12.07c11.766-3.638 22.315-7.762 33.504-12.935l9.142-23.275Zm-8.374 35.345-.768 5.168 5.344 3.447 9.12-6.031-4.554-5.174-6.102 3.454-3.04-.864Zm28.95 37.084-3.051-7.776-5.344 1.739 1.536 9.472 6.859-3.435Zm159.669 83.189-5.707 6.464c-3.498-4.117-7.424-7.584-11.413-11.21l-8.768 1.29-8-9.045v11.189l6.859 5.195 4.565 5.163 6.091-6.891c1.536 2.869 3.05 5.749 4.576 8.619v8.618l-6.859 7.755-12.576 8.629-9.515 9.494-6.09-6.912 3.04-7.755-6.08-6.901-10.294-21.984-8.757-9.899-2.293 2.571 3.445 12.512 6.464 7.328c3.691 10.656 7.349 20.853 12.203 31.04 7.52 0 14.602-.8 22.08-1.739v6.037l-9.142 22.422-8.384 9.472-6.848 14.677v24.128l2.294 9.493-3.808 4.299-8.395 5.184-8.757 7.317 7.242 8.192-9.909 8.64 1.909 5.579-14.858 16.832h-9.899l-8.384 5.173h-5.333v-6.901l-2.272-13.813c-2.955-8.651-6.016-17.248-9.142-25.846 0-6.346.374-12.629.758-18.976l3.818-8.608-5.344-10.357.384-14.229-7.242-8.182 3.626-11.85-5.898-6.688h-10.294l-3.424-3.883-10.282 6.475-4.192-4.758-9.526 8.192a17399.722 17399.722 0 0 0-19.424-21.984l-7.605-18.112 6.848-10.336-3.797-4.309 8.362-19.84c6.88-8.555 14.059-16.757 21.334-24.992l12.949-3.456 14.475-1.717 9.898 2.592 14.091 14.208 4.96-5.59 6.837-.864 12.96 4.31h9.91l6.848-6.038 3.05-4.309-6.869-4.309-11.424-.854c-3.179-4.405-6.123-9.034-9.888-12.938l-3.819 1.717-1.525 11.221-6.859-7.765-1.504-8.629-7.616-6.016h-3.061l7.627 8.608-3.051 7.765-6.091 1.717 3.808-7.754-6.869-3.446-6.08-6.89-11.435 2.57-1.514 3.446-6.859 4.32-3.808 9.482-9.515 4.736-4.202-4.736h-4.555v-15.52l9.899-5.184h7.616l-1.536-6.026-6.08-6.038 10.272-2.154 5.717-6.464 4.565-7.766h8.384l-2.293-6.026 5.344-3.446v6.902l11.424 2.57 11.413-9.472.768-4.32 9.899-6.89c-3.584.448-7.168.768-10.667 1.728v-7.766l3.808-8.626h-3.808l-8.362 7.757-2.294 4.315 2.294 6.037-3.819 10.336-6.091-3.445-5.322-6.027-8.384 6.027-3.051-13.793 14.464-9.478v-5.177l9.152-6.033 14.464-3.453 9.909 3.453 18.272 3.45-4.554 5.167h-9.91l9.91 10.344 7.605-8.615 2.315-3.79s29.205 26.175 45.898 54.805c16.694 28.64 24.523 62.4 24.523 69.258ZM170.655 64.099l3.808-3.443 7.627-1.725c5.216-2.538 10.453-4.247 15.989-6.038l-3.04-5.174-9.834 1.413-4.64 4.631-7.659 1.11-6.816 3.199-3.307 1.6-2.026 2.708 9.898 1.72Zm-7.616 28.453 7.616 5.17h6.102v-6.03l-7.616-3.449-6.102 4.309Zm129.494 31.901-1.526 10.347 8.374-1.728 6.09-6.027-5.333-5.173c-1.781-4.768-3.84-9.227-6.08-13.792h-4.565v5.163l3.04 3.445v7.765Z"/>
</svg>
